<?xml version="1.0" encoding="utf-8"?>
<!DOCTYPE svg PUBLIC "-//W3C//DTD SVG 1.1//EN" "http://www.w3.org/Graphics/SVG/1.1/DTD/svg11.dtd">
<svg xmlns="http://www.w3.org/2000/svg" xmlns:xlink="http://www.w3.org/1999/xlink" version="1.1" baseProfile="full" width="223.262" height="32" viewBox="0 0 223.26 32.00" enable-background="new 0 0 223.26 32.00" fill="#fff">
    <style>
        use:not(:target) {
		  display: none;
		}
		use {
		  fill: #00487E;
		}
		use[id$="-inv"] {
		  fill: #fff;
		}
    </style>
    <defs>
        <g id="logo">
            <path fill-opacity="1" fill-rule="evenodd" stroke-width="0.2" stroke-linejoin="round" d="M 16,0C 24.8366,0 32,7.16345 32,16C 32,24.8365 24.8366,32 16,32C 7.16344,32 0,24.8365 0,16C 0,7.16345 7.16344,0 16,0 Z M 8.21262,8.51147C 6.04065,9.6626 4.95467,10.856 4.95467,12.0919C 4.95467,12.1937 4.95467,12.2983 4.95467,12.4058C 4.95467,12.9347 5.2799,13.1991 5.93036,13.1991C 6.73919,13.1991 8.14616,12.8102 10.1513,12.0325L 19.2039,8.07458C 20.2079,7.50903 21.1737,7.2262 22.1013,7.2262C 22.3926,7.2262 22.6641,7.25024 22.9158,7.29834C 24.5787,7.61218 25.5558,8.63318 25.8471,10.3611C 25.8556,10.5082 25.8598,10.6495 25.8598,10.7853C 25.8598,12.2758 25.2815,13.1821 24.1248,13.5045C 24.3765,12.6871 24.5023,11.9689 24.5023,11.3495C 24.5023,10.156 23.924,9.34302 22.7673,8.91028C 22.6146,8.87354 22.4548,8.8551 22.288,8.8551C 21.7563,8.8551 20.9729,9.08142 19.9378,9.53394L 16.332,11.1077L 18.5549,16.9406L 21.2401,15.808C 22.3572,15.3357 23.2481,15.0995 23.9127,15.0995C 24.1502,15.0995 24.3779,15.1278 24.5957,15.1843C 25.8004,15.5068 26.4028,16.4669 26.4028,18.0648C 26.4028,20.1547 24.9831,21.2322 22.1437,21.2972C 23.8349,20.5535 24.7116,19.5056 24.7738,18.1538C 24.6551,17.3846 24.2464,17 23.5479,17C 23.1491,17 22.6471,17.1273 22.0419,17.3818L 11.1779,21.9929C 10.8074,22.1033 10.3591,22.1584 9.8331,22.1584C 8.11646,22.1499 7.2143,21.1106 7.12663,19.0404C 7.35288,16.7468 8.67218,15.5237 11.0845,15.371C 12.5636,15.2861 13.511,16.0653 13.9267,17.7084C 12.7899,17.0325 11.8269,16.7059 11.0379,16.7285C 9.46262,16.7681 8.61137,17.5402 8.48411,19.0447C 8.53219,20.0345 8.98044,20.5294 9.82886,20.5294C 10.2333,20.5294 10.69,20.4192 11.1991,20.1986L 17.0914,17.6617L 14.8388,11.761L 8.86166,14.3741C 7.74457,14.8578 6.78161,15.0995 5.97278,15.0995C 4.38906,15.0995 3.59719,14.2384 3.59719,12.5161C 3.59719,10.4573 5.13567,9.12244 8.21262,8.51147 Z M 16.2302,22.7014C 16.7025,22.7014 17.1133,22.8845 17.4625,23.2507C 17.8118,23.6169 17.9864,24.0985 17.9864,24.6952C 17.9864,24.8734 17.9667,25.0614 17.9271,25.2594C 17.7347,26.286 17.0405,26.7908 15.8442,26.7738C 14.8261,26.7654 14.2732,26.2944 14.1855,25.3612C 14.1855,25.0897 14.2774,24.954 14.4612,24.954C 14.5206,24.954 14.5956,24.9709 14.6861,25.0049C 15.0792,25.4998 15.5091,25.7274 15.9757,25.6879C 16.5413,25.6398 16.8453,25.3966 16.8877,24.9583C 16.8962,24.8705 16.9005,24.7914 16.9005,24.7207C 16.9005,24.1239 16.6304,23.67 16.0902,23.3589C 15.9149,23.192 15.8272,23.0563 15.8272,22.9517C 15.8272,22.8075 15.9615,22.724 16.2302,22.7014 Z "/>
            <path d="M 49.6067,22.4319L 44.3611,14.8154L 49.2707,9.3645L 45.8545,9.3645L 40.4222,15.3008L 40.4222,9.3645L 37.4727,9.3645L 37.4727,22.4319L 40.4222,22.4319L 40.4222,19.2024L 42.3076,17.1116L 46.0598,22.4319L 49.6067,22.4319 Z "/>
            <path d="M 55.7663,12.2953C 54.1285,12.3159 52.8257,12.7833 51.8577,13.6978C 50.8897,14.6121 50.3942,15.8496 50.3713,17.4103C 50.3942,18.9636 50.8897,20.2019 51.8577,21.1251C 52.8257,22.0485 54.1285,22.5214 55.7663,22.5439C 57.395,22.5214 58.6924,22.0485 59.6585,21.1251C 60.6245,20.2019 61.1192,18.9636 61.1426,17.4103C 61.1192,15.8496 60.6245,14.6121 59.6585,13.6978C 58.6924,12.7833 57.395,12.3159 55.7663,12.2953 Z M 55.7663,14.6848C 56.5157,14.6973 57.1169,14.9524 57.57,15.4502C 58.0231,15.948 58.2557,16.6138 58.2677,17.4476C 58.2557,18.2814 58.0231,18.9473 57.57,19.4451C 57.1169,19.9429 56.5157,20.198 55.7663,20.2104C 55.0079,20.198 54.4012,19.9429 53.9461,19.4451C 53.4911,18.9473 53.2578,18.2814 53.2461,17.4476C 53.2578,16.6138 53.4911,15.948 53.9461,15.4502C 54.4012,14.9524 55.0079,14.6973 55.7663,14.6848 Z "/>
            <path d="M 76.2815,12.2766C 75.4282,12.2844 74.6939,12.4789 74.0787,12.86C 73.4634,13.2411 72.9905,13.8182 72.6599,14.5914C 72.4122,13.8579 71.9976,13.2902 71.4162,12.8879C 70.8347,12.4858 70.1168,12.2821 69.2624,12.2766C 67.7285,12.286 66.596,12.902 65.8648,14.1248L 65.8648,12.3887L 62.99,12.3887L 62.99,22.4319L 65.8648,22.4319L 65.8648,17.4663C 65.8707,16.7239 66.069,16.1179 66.4599,15.6484C 66.8507,15.1791 67.3991,14.9325 68.105,14.9088C 68.6996,14.9138 69.1671,15.0951 69.5074,15.4525C 69.8477,15.8099 70.0211,16.3131 70.0277,16.9623L 70.0277,22.4319L 72.8839,22.4319L 72.8839,17.4663C 72.8901,16.7239 73.0877,16.1179 73.4766,15.6484C 73.8655,15.1791 74.4085,14.9325 75.1054,14.9088C 75.709,14.9138 76.1819,15.0951 76.5241,15.4525C 76.8664,15.8099 77.0406,16.3131 77.0468,16.9623L 77.0468,22.4319L 79.903,22.4319L 79.903,16.1222C 79.891,14.9329 79.565,13.9979 78.9253,13.3174C 78.2855,12.6367 77.4043,12.2898 76.2815,12.2766 Z "/>
            <path d="M 89.0864,12.3887L 89.0864,17.3542C 89.0802,18.0967 88.8826,18.7026 88.4937,19.172C 88.1048,19.6415 87.5619,19.8881 86.8649,19.9117C 86.28,19.9063 85.8211,19.7258 85.4882,19.3704C 85.1553,19.0149 84.9857,18.5171 84.9795,17.877L 84.9795,12.3887L 82.1046,12.3887L 82.1046,18.6984C 82.1167,19.8958 82.4426,20.8331 83.0824,21.5101C 83.7221,22.1873 84.6034,22.5319 85.7262,22.5439C 87.2569,22.5502 88.377,21.9216 89.0864,20.6584L 89.0864,22.4319L 91.9426,22.4319L 91.9426,12.3887L 89.0864,12.3887 Z "/>
            <path d="M 101.07,12.2766C 99.4836,12.2828 98.3262,12.9052 97.5982,14.1434L 97.5982,12.3887L 94.7233,12.3887L 94.7233,22.4319L 97.5982,22.4319L 97.5982,17.485C 97.604,16.7335 97.807,16.1222 98.2072,15.6509C 98.6074,15.1794 99.1698,14.9321 99.8943,14.9088C 100.516,14.915 101,15.0985 101.346,15.4595C 101.692,15.8204 101.868,16.3213 101.873,16.9623L 101.873,22.4319L 104.748,22.4319L 104.748,16.1222C 104.735,14.9329 104.402,13.9979 103.749,13.3174C 103.097,12.6367 102.204,12.2898 101.07,12.2766 Z "/>
            <path d="M 108.667,8.09497C 108.25,8.10242 107.914,8.23694 107.659,8.49878C 107.405,8.7605 107.274,9.10498 107.267,9.53247C 107.274,9.95166 107.405,10.2939 107.659,10.5592C 107.914,10.8245 108.25,10.9613 108.667,10.9698C 109.085,10.9613 109.421,10.8245 109.675,10.5592C 109.93,10.2939 110.06,9.95166 110.067,9.53247C 110.06,9.10498 109.93,8.7605 109.675,8.49878C 109.421,8.23694 109.085,8.10242 108.667,8.09497 Z M 107.23,12.3887L 107.23,22.4319L 110.105,22.4319L 110.105,12.3887L 107.23,12.3887 Z "/>
            <path d="M 119.886,8.58044L 119.886,13.8634C 119.149,12.821 118.066,12.2921 116.638,12.2766C 115.219,12.2976 114.091,12.7643 113.255,13.6768C 112.419,14.5891 111.991,15.8212 111.971,17.3729C 111.99,18.9441 112.424,20.1934 113.271,21.1205C 114.118,22.0476 115.266,22.5221 116.713,22.5439C 118.107,22.5283 119.165,21.9994 119.886,20.9572L 119.886,22.4319L 122.743,22.4319L 122.743,8.58044L 119.886,8.58044 Z M 117.385,20.2291C 116.619,20.2158 116.009,19.9576 115.555,19.4543C 115.102,18.9512 114.866,18.2822 114.846,17.4476C 114.867,16.6212 115.105,15.9546 115.562,15.4478C 116.019,14.941 116.627,14.6805 117.385,14.6661C 118.134,14.6793 118.736,14.9375 119.189,15.4408C 119.642,15.9441 119.874,16.613 119.886,17.4476C 119.874,18.2822 119.642,18.9512 119.189,19.4543C 118.736,19.9576 118.134,20.2158 117.385,20.2291 Z "/>
            <path d="M 134.353,22.4319L 134.335,15.8795C 134.317,14.7412 133.941,13.8583 133.207,13.231C 132.474,12.6036 131.43,12.2855 130.078,12.2766C 129.215,12.2782 128.426,12.3777 127.712,12.5753C 126.998,12.7728 126.275,13.0591 125.542,13.4341L 126.438,15.4128C 127.508,14.8311 128.504,14.5386 129.425,14.5354C 130.813,14.5635 131.509,15.1234 131.516,16.2156L 131.516,16.4022L 128.753,16.4022C 127.515,16.4186 126.569,16.6892 125.915,17.2142C 125.261,17.7393 124.931,18.4767 124.926,19.4264C 124.936,20.3574 125.243,21.1088 125.848,21.6805C 126.452,22.2522 127.296,22.5463 128.379,22.5626C 129.795,22.547 130.847,22.1115 131.534,21.2559L 131.534,22.4319L 134.353,22.4319 Z M 129.182,20.5092C 128.692,20.504 128.309,20.3882 128.034,20.1614C 127.759,19.9347 127.619,19.6274 127.614,19.2397C 127.611,18.4587 128.159,18.0792 129.257,18.101L 131.516,18.101L 131.516,18.9971C 131.421,19.4357 131.163,19.795 130.741,20.0751C 130.319,20.3551 129.8,20.4998 129.182,20.5092 Z "/>
            <path d="M 143.966,8.58044L 143.966,13.8634C 143.229,12.821 142.146,12.2921 140.718,12.2766C 139.299,12.2976 138.171,12.7643 137.335,13.6768C 136.499,14.5891 136.071,15.8212 136.051,17.3729C 136.07,18.9441 136.504,20.1934 137.351,21.1205C 138.198,22.0476 139.346,22.5221 140.793,22.5439C 142.187,22.5283 143.245,21.9994 143.966,20.9572L 143.966,22.4319L 146.823,22.4319L 146.823,8.58044L 143.966,8.58044 Z M 141.465,20.2291C 140.699,20.2158 140.089,19.9576 139.635,19.4543C 139.182,18.9512 138.946,18.2822 138.926,17.4476C 138.947,16.6212 139.186,15.9546 139.642,15.4478C 140.099,14.941 140.707,14.6805 141.465,14.6661C 142.214,14.6793 142.816,14.9375 143.269,15.4408C 143.722,15.9441 143.954,16.613 143.966,17.4476C 143.954,18.2822 143.722,18.9512 143.269,19.4543C 142.816,19.9576 142.214,20.2158 141.465,20.2291 Z "/>
            <path d="M 162.838,15.3942L 159.646,15.3942L 159.646,12.2206L 157.817,12.2206L 157.817,15.3942L 154.625,15.3942L 154.625,17.2982L 157.817,17.2982L 157.817,20.4531L 159.646,20.4531L 159.646,17.2982L 162.838,17.2982L 162.838,15.3942 Z "/>
            <path d="M 176.11,9.3645L 170.566,9.3645L 170.566,22.4319L 175.998,22.4319C 178.094,22.4 179.773,21.7917 181.036,20.6072C 182.299,19.4225 182.947,17.8529 182.98,15.8982C 182.947,13.9353 182.308,12.3634 181.064,11.1823C 179.82,10.0011 178.169,9.39514 176.11,9.3645 Z M 176.185,19.9491L 173.516,19.9491L 173.516,11.8473L 176.054,11.8473C 177.198,11.8663 178.131,12.2435 178.854,12.979C 179.578,13.7145 179.951,14.6937 179.975,15.9169C 179.953,17.1302 179.595,18.101 178.899,18.829C 178.203,19.557 177.298,19.9304 176.185,19.9491 Z "/>
            <path d="M 193.527,22.4319L 193.508,15.8795C 193.49,14.7412 193.115,13.8583 192.381,13.231C 191.647,12.6036 190.604,12.2855 189.252,12.2766C 188.388,12.2782 187.599,12.3777 186.885,12.5753C 186.171,12.7728 185.448,13.0591 184.715,13.4341L 185.611,15.4128C 186.682,14.8311 187.677,14.5386 188.598,14.5354C 189.986,14.5635 190.683,15.1234 190.689,16.2156L 190.689,16.4022L 187.926,16.4022C 186.689,16.4186 185.743,16.6892 185.089,17.2142C 184.435,17.7393 184.105,18.4767 184.099,19.4264C 184.109,20.3574 184.416,21.1088 185.021,21.6805C 185.626,22.2522 186.47,22.5463 187.553,22.5626C 188.968,22.547 190.02,22.1115 190.708,21.2559L 190.708,22.4319L 193.527,22.4319 Z M 188.356,20.5092C 187.865,20.504 187.483,20.3882 187.207,20.1614C 186.932,19.9347 186.792,19.6274 186.787,19.2397C 186.784,18.4587 187.332,18.0792 188.43,18.101L 190.689,18.101L 190.689,18.9971C 190.594,19.4357 190.336,19.795 189.914,20.0751C 189.493,20.3551 188.973,20.4998 188.356,20.5092 Z "/>
            <path d="M 201.702,19.7625C 201.18,20.0082 200.732,20.1327 200.358,20.1357C 199.727,20.1793 199.403,19.7936 199.388,18.9784L 199.388,14.8341L 202.113,14.8341L 202.113,12.8367L 199.388,12.8367L 199.388,10.0739L 196.531,10.0739L 196.531,12.8367L 195.131,12.8367L 195.131,14.8154L 196.531,14.8154L 196.531,19.4637C 196.551,20.4994 196.853,21.2749 197.437,21.7902C 198.021,22.3055 198.771,22.563 199.686,22.5626C 200.157,22.5607 200.616,22.4991 201.063,22.3782C 201.51,22.2573 201.922,22.0885 202.3,21.8718L 201.702,19.7625 Z "/>
            <path d="M 208.646,12.2953C 207.009,12.3159 205.706,12.7833 204.738,13.6978C 203.77,14.6121 203.274,15.8496 203.251,17.4103C 203.274,18.9636 203.77,20.2019 204.738,21.1251C 205.706,22.0485 207.009,22.5214 208.646,22.5439C 210.275,22.5214 211.572,22.0485 212.538,21.1251C 213.505,20.2019 213.999,18.9636 214.023,17.4103C 213.999,15.8496 213.505,14.6121 212.538,13.6978C 211.572,12.7833 210.275,12.3159 208.646,12.2953 Z M 208.646,14.6848C 209.396,14.6973 209.997,14.9524 210.45,15.4502C 210.903,15.948 211.136,16.6138 211.148,17.4476C 211.136,18.2814 210.903,18.9473 210.45,19.4451C 209.997,19.9429 209.396,20.198 208.646,20.2104C 207.888,20.198 207.281,19.9429 206.826,19.4451C 206.371,18.9473 206.138,18.2814 206.126,17.4476C 206.138,16.6138 206.371,15.948 206.826,15.4502C 207.281,14.9524 207.888,14.6973 208.646,14.6848 Z "/>
            <path d="M 222.198,15.3381L 223.188,13.3781C 222.621,13.021 222,12.7456 221.326,12.552C 220.651,12.3583 219.965,12.2603 219.268,12.2579C 218.147,12.2592 217.214,12.5228 216.47,13.049C 215.725,13.5752 215.338,14.3569 215.31,15.3942C 215.527,17.0155 216.395,17.9684 217.914,18.2527C 219.433,18.537 220.301,19.009 220.518,19.6691C 220.511,19.9386 220.39,20.137 220.157,20.2642C 219.923,20.3912 219.62,20.4542 219.249,20.4531C 218.687,20.4512 218.098,20.343 217.482,20.1288C 216.867,19.9144 216.292,19.6057 215.758,19.2024L 214.825,21.1438C 215.403,21.6023 216.067,21.9501 216.817,22.1869C 217.568,22.4237 218.354,22.5427 219.174,22.5439C 220.341,22.5416 221.307,22.2755 222.072,21.7458C 222.838,21.2162 223.234,20.4368 223.262,19.4077C 223.05,17.7716 222.172,16.8016 220.628,16.4979C 219.084,16.1941 218.201,15.7329 217.979,15.1141C 217.986,14.8544 218.095,14.6646 218.306,14.5448C 218.518,14.4249 218.795,14.3658 219.137,14.3674C 219.563,14.3694 220.041,14.4541 220.57,14.6217C 221.099,14.7894 221.641,15.0282 222.198,15.3381 Z "/>
        </g>
    </defs>
    <use id="sprite" xlink:href="#logo"/>
    <use id="sprite-inv" xlink:href="#logo"/>
</svg>
