<?xml version="1.0" encoding="utf-8"?>
<!DOCTYPE svg PUBLIC "-//W3C//DTD SVG 1.1//EN" "http://www.w3.org/Graphics/SVG/1.1/DTD/svg11.dtd">
<svg xmlns="http://www.w3.org/2000/svg" xmlns:xlink="http://www.w3.org/1999/xlink" version="1.1" baseProfile="full" width="120" height="35" viewBox="0 0 120.00 35.00" enable-background="new 0 0 120.00 35.00" fill="#fff">
    <style>
        use:not(:target) {
		  display: none;
		}
		use {
		  fill: #0091ff;
		}
		use[id$="-inv"] {
		  fill: #fff;
		}
    </style>
    <defs>
        <g id="logo">
            <path fill-opacity="1" fill-rule="evenodd" stroke-width="0.2" stroke-linejoin="round" d="M 16,5.5C 22.6274,5.5 28,10.8726 28,17.5C 28,24.1274 22.6274,29.5 16,29.5C 9.37258,29.5 4,24.1274 4,17.5C 4,10.8726 9.37258,5.5 16,5.5 Z M 10.1595,11.8836C 8.53049,12.7469 7.716,13.642 7.716,14.5689C 7.716,14.6453 7.716,14.7237 7.716,14.8043C 7.716,15.201 7.95993,15.3993 8.44777,15.3993C 9.05439,15.3993 10.1096,15.1077 11.6134,14.5244L 18.403,11.5559C 19.1559,11.1317 19.8803,10.9196 20.576,10.9196C 20.7944,10.9196 20.9981,10.9377 21.1868,10.9737C 22.434,11.2092 23.1668,11.9749 23.3853,13.2708C 23.3917,13.3811 23.3949,13.4872 23.3949,13.589C 23.3949,14.7068 22.9611,15.3866 22.0936,15.6284C 22.2824,15.0154 22.3768,14.4766 22.3768,14.0121C 22.3768,13.117 21.943,12.5072 21.0755,12.1827C 20.9609,12.1551 20.8411,12.1414 20.716,12.1414C 20.3172,12.1414 19.7297,12.311 18.9534,12.6504L 16.249,13.8308L 17.9162,18.2055L 19.9301,17.356C 20.7679,17.0018 21.4361,16.8246 21.9345,16.8246C 22.1127,16.8246 22.2834,16.8459 22.4467,16.8883C 23.3503,17.1301 23.8021,17.8502 23.8021,19.0486C 23.8021,20.616 22.7373,21.4242 20.6078,21.4729C 21.8762,20.9151 22.5337,20.1293 22.5804,19.1154C 22.4913,18.5385 22.1848,18.25 21.6609,18.25C 21.3618,18.25 20.9853,18.3454 20.5314,18.5363L 12.3834,21.9947C 12.1055,22.0774 11.7693,22.1188 11.3748,22.1188C 10.0873,22.1124 9.41073,21.333 9.34498,19.7803C 9.51466,18.0602 10.5041,17.1428 12.3134,17.0283C 13.4227,16.9646 14.1333,17.549 14.4451,18.7813C 13.5924,18.2744 12.8702,18.0294 12.2784,18.0464C 11.097,18.0761 10.4585,18.6551 10.3631,19.7835C 10.3991,20.5259 10.7353,20.8971 11.3716,20.8971C 11.675,20.8971 12.0175,20.8144 12.3993,20.6489L 16.8185,18.7463L 15.1291,14.3207L 10.6462,16.2806C 9.80843,16.6433 9.08621,16.8246 8.47958,16.8246C 7.29179,16.8246 6.6979,16.1788 6.6979,14.8871C 6.6979,13.3429 7.85175,12.3418 10.1595,11.8836 Z M 16.1727,22.5261C 16.5269,22.5261 16.835,22.6634 17.0969,22.9381C 17.3589,23.2127 17.4898,23.5739 17.4898,24.0214C 17.4898,24.155 17.475,24.2961 17.4453,24.4445C 17.3011,25.2145 16.7803,25.5931 15.8831,25.5804C 15.1196,25.574 14.7049,25.2209 14.6391,24.5209C 14.6391,24.3173 14.7081,24.2155 14.8459,24.2155C 14.8905,24.2155 14.9467,24.2282 15.0146,24.2537C 15.3094,24.6248 15.6318,24.7956 15.9818,24.7659C 16.406,24.7298 16.634,24.5474 16.6658,24.2187C 16.6722,24.1529 16.6753,24.0935 16.6753,24.0405C 16.6753,23.5929 16.4728,23.2525 16.0677,23.0192C 15.9362,22.8941 15.8704,22.7922 15.8704,22.7138C 15.8704,22.6056 15.9712,22.543 16.1727,22.5261 Z "/>
            <path d="M 49.8364,23.7248L 44.8781,16.3413L 49.549,11.1315L 45.7404,11.1315L 41.0157,16.4131L 41.0157,11.1315L 37.7282,11.1315L 37.7282,23.7248L 41.0157,23.7248L 41.0157,20.6528L 42.6325,18.8563L 45.9021,23.7248L 49.8364,23.7248 Z "/>
            <path d="M 55.7101,13.8981C 54.0902,13.9183 52.8073,14.3719 51.8611,15.2589C 50.915,16.1459 50.4314,17.3451 50.4105,18.8563C 50.4314,20.3762 50.915,21.5806 51.8611,22.4695C 52.8073,23.3584 54.0903,23.8127 55.7101,23.8326C 57.3306,23.8127 58.6166,23.3584 59.568,22.4695C 60.5194,21.5806 61.0059,20.3762 61.0276,18.8563C 61.0059,17.3451 60.5194,16.1459 59.568,15.2589C 58.6166,14.3719 57.3306,13.9183 55.7101,13.8981 Z M 55.7101,16.485C 56.3478,16.4955 56.8553,16.717 57.2326,17.1497C 57.6098,17.5823 57.803,18.1632 57.812,18.8923C 57.803,19.6299 57.6098,20.216 57.2326,20.6506C 56.8553,21.0851 56.3478,21.3074 55.7101,21.3175C 55.0809,21.3074 54.5787,21.0851 54.2033,20.6506C 53.8279,20.216 53.6355,19.6299 53.6262,18.8923C 53.6355,18.1632 53.8279,17.5823 54.2033,17.1497C 54.5787,16.717 55.0809,16.4955 55.7101,16.485 Z "/>
            <path d="M 68.123,11.1315L 62.6977,11.1315L 62.6977,23.7248L 67.9973,23.7248C 70.0658,23.6967 71.7134,23.1151 72.9398,21.98C 74.1663,20.8448 74.7943,19.3245 74.8239,17.4192C 74.794,15.5224 74.1757,14.0074 72.969,12.8741C 71.7624,11.7408 70.1471,11.1599 68.123,11.1315 Z M 68.2129,21.066L 65.9852,21.066L 65.9852,13.8082L 68.0512,13.8082C 69.0658,13.8243 69.8839,14.1604 70.5056,14.8165C 71.1273,15.4726 71.4469,16.3521 71.4645,17.4551C 71.448,18.5487 71.1441,19.42 70.5528,20.069C 69.9614,20.7179 69.1814,21.0503 68.2129,21.066 Z "/>
            <path d="M 80.9131,13.8801C 80.1204,13.8816 79.3569,13.9729 78.6226,14.1541C 77.8883,14.3352 77.1427,14.5972 76.386,14.94L 77.2663,17.0958C 77.7929,16.8435 78.3071,16.6519 78.809,16.5209C 79.3109,16.3899 79.7667,16.3241 80.1766,16.3233C 81.4041,16.3503 82.0209,16.8353 82.0269,17.7785L 82.0269,17.8862L 79.4939,17.8862C 78.2858,17.9091 77.3651,18.1733 76.7318,18.6789C 76.0985,19.1846 75.7797,19.9024 75.7752,20.8325C 75.7834,21.7371 76.0768,22.4654 76.6555,23.0174C 77.2341,23.5695 78.0485,23.8532 79.0987,23.8685C 80.4161,23.8595 81.3922,23.4463 82.0269,22.6289L 82.0269,23.7248L 85.1708,23.7248L 85.1708,17.4012C 85.1528,16.2799 84.7755,15.4146 84.039,14.8053C 83.3024,14.196 82.2605,13.8876 80.9131,13.8801 Z M 80.0867,21.6948C 79.6705,21.6907 79.3487,21.5911 79.1211,21.3961C 78.8936,21.2011 78.7783,20.9354 78.7753,20.5989C 78.7753,19.9222 79.2244,19.5869 80.1227,19.5929L 82.0269,19.5929L 82.0269,20.4372C 81.9191,20.8119 81.6901,21.1135 81.3398,21.3422C 80.9895,21.5709 80.5718,21.6884 80.0867,21.6948 Z "/>
            <path d="M 93.0207,20.9582C 92.5476,21.1648 92.1464,21.2726 91.8171,21.2816C 91.2452,21.3085 90.9518,20.9672 90.9368,20.2576L 90.9368,16.5928L 93.4519,16.5928L 93.4519,14.4729L 90.9368,14.4729L 90.9368,11.7782L 87.757,11.7782L 87.757,14.4729L 86.4097,14.4729L 86.4097,16.5928L 87.757,16.5928L 87.757,20.7606C 87.7746,21.7715 88.0808,22.5432 88.6755,23.0758C 89.2702,23.6084 90.0479,23.8726 91.0086,23.8685C 91.4907,23.8674 91.9593,23.8113 92.4144,23.7001C 92.8695,23.5889 93.2752,23.4295 93.6315,23.2218L 93.0207,20.9582 Z "/>
            <path d="M 99.7211,13.8981C 98.1013,13.9183 96.8183,14.3719 95.8721,15.2589C 94.926,16.1459 94.4424,17.3451 94.4215,18.8563C 94.4424,20.3762 94.926,21.5806 95.8721,22.4695C 96.8183,23.3584 98.1013,23.8127 99.7211,23.8326C 101.342,23.8127 102.628,23.3584 103.579,22.4695C 104.53,21.5806 105.017,20.3762 105.039,18.8563C 105.017,17.3451 104.53,16.1459 103.579,15.2589C 102.628,14.3719 101.342,13.9183 99.7211,13.8981 Z M 99.7211,16.485C 100.359,16.4955 100.866,16.717 101.244,17.1497C 101.621,17.5823 101.814,18.1632 101.823,18.8923C 101.814,19.6299 101.621,20.216 101.244,20.6506C 100.866,21.0851 100.359,21.3074 99.7211,21.3175C 99.0919,21.3074 98.5897,21.0851 98.2143,20.6506C 97.8389,20.216 97.6465,19.6299 97.6372,18.8923C 97.6465,18.1632 97.8389,17.5823 98.2143,17.1497C 98.5897,16.717 99.0919,16.4955 99.7211,16.485 Z "/>
            <path d="M 113.194,17.0778L 114.272,14.9939C 113.657,14.6245 113.005,14.3438 112.318,14.1518C 111.631,13.9598 110.935,13.8633 110.23,13.8621C 109.065,13.8663 108.116,14.1365 107.38,14.6728C 106.645,15.2091 106.265,15.9868 106.242,17.006C 106.45,18.5603 107.286,19.4847 108.748,19.7793C 110.21,20.0738 111.045,20.4908 111.254,21.0301C 111.248,21.2277 111.152,21.3759 110.964,21.4747C 110.777,21.5735 110.532,21.6229 110.23,21.6229C 109.684,21.621 109.114,21.517 108.519,21.3108C 107.924,21.1046 107.344,20.8074 106.781,20.4193L 105.775,22.4852C 106.374,22.9437 107.048,23.2888 107.798,23.5204C 108.547,23.7521 109.334,23.8681 110.158,23.8685C 111.367,23.8629 112.349,23.5912 113.104,23.0534C 113.859,22.5155 114.249,21.7453 114.272,20.7426C 114.068,19.1763 113.223,18.2399 111.737,17.9334C 110.25,17.6269 109.401,17.2159 109.188,16.7006C 109.192,16.4943 109.278,16.3409 109.444,16.2402C 109.61,16.1395 109.83,16.0894 110.104,16.0898C 110.503,16.0916 110.967,16.1777 111.494,16.348C 112.021,16.5183 112.588,16.7616 113.194,17.0778 Z "/>
        </g>
    </defs>
    <use id="sprite" xlink:href="#logo"/>
    <use id="sprite-inv" xlink:href="#logo"/>
</svg>
